<?xml version="1.0" encoding="UTF-8"?>
<svg xmlns="http://www.w3.org/2000/svg" xmlns:xlink="http://www.w3.org/1999/xlink" width="600" height="660">
<defs>
  <radialGradient id="rg" gradientUnits="userSpaceOnUse" cx="220" cy="220" r="405">
    <stop style="stop-color:#ffffff;stop-opacity:.3" offset="0"/>
    <stop style="stop-color:#ffffff;stop-opacity:.2" offset=".2"/>
    <stop style="stop-color:#666666;stop-opacity:.1" offset=".6"/>
    <stop style="stop-color:#000000;stop-opacity:.13" offset="1"/>
  </radialGradient>
  <radialGradient id="rg2" gradientUnits="userSpaceOnUse" cx="300" cy="850" r="900">
    <stop style="stop-color:#ffff00;" offset="0"/>
    <stop style="stop-color:#aa0000;" offset="0.5"/>
    <stop style="stop-color:#000033;" offset="1"/>
  </radialGradient>
  <path id="shield" d="m2,2v257c0,286 298,398 298,398c0,0 298-112 298-398V2z"/>
  <path id="tail2" fill="none" stroke="#fff" stroke-width="5" stroke-linecap="round" d="M110,300 A400,400 0,0,1 500,300"/>
  <path id="tail3" fill="none" stroke="#fff" stroke-width="5" stroke-linecap="round" d="M120,300 A400,400 0,0,1 500,300"/>
  <path id="tail4" fill="none" stroke="#fff" stroke-width="5" stroke-linecap="round" d="M130,300 A400,400 0,0,1 500,300"/>
</defs>
<use id="bg" xlink:href="#shield" style="fill:url(#rg2);"/>
<g id="tree" style="stroke:url(#rg2);stroke-width:1">
    <path style="fill:#800000;" d="m 317.15,438.17 c 0,0 -0.34,-6.81 2.36,-9.91 4.15,-4.77 20.71,-20.26 33.44,-26.03 9.8,-4.43 38.01,-4.3 44.07,-6.28 l -1.47,-4.35 c -1.66,-1.62 -29.79,1.09 -35.15,-0.97 -6.87,-2.66 11.6,-21.54 13.78,-23.66 l -5.45,-2.06 c -13.49,6.17 -24.08,29.4 -26.74,31.64 -7.6,6.38 -20.41,13.9 -24.36,13.89 0.38,-7.16 -0.29,-12.18 0.97,-16.31 3.94,-12.71 22.47,-37.65 30.7,-45.42 l -5.16,-4.4 c -5,3.1 -9.52,11.87 -16.7,18 -1.3,-0.45 -4.6,-7.84 -6.71,-10.2 l -5.1,2.51 c 0,2.12 4.39,15.58 4.18,17.09 -3.78,5.41 -7.19,10.69 -9.26,14.5 -2.38,4.38 -7.16,14.42 -10.22,22.08 -2.14,5.36 -4.67,10.85 -4.33,17.89 -0.34,-7.07 2.27,-12.53 4.33,-17.89 -3.3,-3.05 -8.68,-7.57 -11.77,-11.84 -1.15,-1.61 0,-17.78 1.16,-19.35 1.96,-2.8 1.49,-11.31 2.6,-20.88 0.57,-4.81 18.07,-16.29 19.03,-17.04 l -2.7,-3.95 c -4.99,0.18 -19.39,8.97 -24.02,15.32 -1.88,0.21 -18.26,-11.52 -22.07,-15.32 l -3.91,2.45 c 2.93,3.37 6.12,6.08 9.16,8.7 2.74,2.38 14.85,12.66 13.58,16.79 -2.76,9.22 -4.18,25.51 -5.07,27.04 -4.89,-1.76 -21.8,-12.28 -30.14,-14.02 -4.81,-7.17 -9.66,-21.77 -15.19,-27.96 l -4.93,1.62 c 2.66,9.42 5.41,17.94 9.51,27.07 l 8.41,10.47 c 13.61,4.94 30.05,14.48 31.99,28.88 0.98,7.38 1.97,12.33 1.69,17.24 1,3.81 2.47,5.51 3.82,9.99 1.01,3.33 1.83,10.26 1.51,16.47 -0.38,7.12 1.14,25.74 0.32,33.28 -2.92,5.04 -0.86,17.01 -1.32,21.72 -1.92,20.64 -6.32,19.97 -35.83,24.38 -3.91,0.59 -15.56,4.93 -30.2,4.54 22.39,5.87 28.21,3.04 33.87,2.63 11.39,-0.83 10.72,3.82 23.88,0 -11.87,11.61 -3.12,6.93 -14.86,8.43 -8.42,1.11 -16.97,14.22 -34.21,6.91 4.57,4.1 8.8,7.52 11.28,7.98 10.63,1.95 20.97,-10.27 30.19,-6.86 -8.47,12.83 -12.61,20.92 -3.24,31.26 -4.72,-7.36 3.08,-19.3 9.09,-28.46 3.18,-4.86 8.78,-10.96 13.4,-15.52 -0.41,-3.16 1.55,-6.65 3.19,-9.43 -1.59,2.74 -3.59,6.25 -3.19,9.43 0.31,2.44 1.22,5.47 3.84,8.48 2.97,3.4 8.87,9.79 1.65,12.68 -20.36,8.16 -2.57,25.8 0.68,31.68 -0.65,-8.16 -8.45,-16.99 0.17,-21.83 7.58,-4.29 17.29,-5.8 12.76,-14.08 -7.24,-13.21 -3.33,-13.99 -4.06,-21.85 2.21,4.21 3.45,8.19 5.42,10.79 17.79,23.17 5.2,27.97 3.39,46.97 24.21,-38.85 3.41,-35.6 3.97,-56.35 13.52,11.91 33.96,30.14 21.53,48.38 14.62,-6.8 8.13,-17.36 8.34,-24.78 9.93,3.44 17.08,2.5 23.42,0.61 -29.82,-5.23 -22.42,-6.21 -38.63,-20.9 -2.46,-2.22 -5.17,-4.9 -6.8,-7.37 2.1,3.04 5.58,6.4 6.8,7.37 4.46,-0.18 8.81,0 15,0.34 8.58,0.44 7.92,-4.02 13.9,-2.93 17.36,3.15 23.75,1.79 28.05,-3.64 -8.74,2.4 -16.58,1.84 -25.01,-1.99 -5.53,-2.51 -11.52,2.08 -20.7,-0.71 -17.78,-5.4 -19.69,-10.11 -20.33,-26.22 -0.23,-5.19 0.73,-21.13 0.17,-24.34 -1.79,-9.21 -0.64,-26.13 -1.24,-30.64 -0.55,-4.11 -1.64,-12.16 -0.4,-21.8 z" />
    <g style="fill:#008800;">
        <path d="m 216.92,349.62 c -3.01,-0.8 -6.03,5.5 -8.52,0.18 -4.96,-3.17 -3.19,12.39 -8.51,5.71 -1.07,-5.58 -5.15,-2.31 -8.16,-0.45 -2.13,-0.7 2.3,-4.94 -2.84,-3.03 -6.39,3.56 -2.84,-7.12 -8.7,-4.04 -5.14,1.8 -0.35,-8.19 -7.45,-6.24 -7.27,1.71 -6.56,-7.89 -14.02,-6.46 -6.74,0.18 3.55,-9.83 -4.79,-6.54 -4.79,2.39 -5.32,-1.4 -4.97,-4.68 -1.95,-2.26 -8.69,-5 -1.77,-6.44 6.92,-1.96 -0.35,-4.31 -2.84,-6.55 1.6,-1.56 10.47,-3.13 3.55,-4.07 -1.6,-1.71 2.13,-7.04 -2.13,-3.79 -7.63,1.65 0,-9.44 -5.68,-8.1 -6.92,-1.5 -2.84,-7.01 0.89,-8.13 -3.19,0.88 -11.89,0 -6.39,-3.81 4.26,-2.33 0.18,-3 -1.59,-3.51 -2.13,-4.89 13.48,-5.4 3.72,-4.85 -7.27,-4.56 4.26,-7.43 8.7,-5.95 3.19,-0.46 0.35,-3.61 4.61,-3.15 1.42,-1.74 -7.45,-3.36 -1.77,-6.11 3.19,0.55 6.56,-1.97 2.3,-3.85 -7.27,1.23 3.91,-7.27 -3.55,-6.56 -5.5,0.44 -5.67,-2.49 -0.88,-3.91 3.9,-3.85 9.75,-5.28 12.95,-0.35 3.19,2.86 11.35,-1.95 7.1,-3.23 -5.68,2.36 -2.84,-2.47 -3.91,-4.4 -5.85,3.44 -7.8,-6.37 -1.24,-5.82 4.61,-0.69 -0.35,-6.03 4.97,-3.42 3.01,2 7.63,0.32 8.51,-0.96 3.02,6.81 11.89,-1.42 14.02,4.9 -1.6,4.72 6.39,4.82 4.44,-0.2 4.43,-2 -3.02,-6.3 2.3,-5.2 4.97,-0.51 -2.66,-7.34 3.37,-4.43 2.67,1.81 6.21,6.92 5.68,0.53 3.02,-3.92 7.99,5.16 12.07,0.58 6.03,1.25 0.53,19.63 8.52,12.3" />
        <path d="m 138.67,284.04 c 1.96,3.66 -10.11,-1.24 -6.03,4.56 4.08,9.61 -7.27,-1.67 -8.87,5.21 5.15,6.16 3.02,7.94 0,10.29 0.89,1 1.95,1.39 3.55,2.07 -1.78,1.65 -3.55,3.21 -3.55,4.61 0,2.81 3.73,4.33 5.68,6.35 -4.61,3.32 -0.89,5.91 2.66,7.39 1.77,5.15 -3.02,12.8 3.02,16.07 2.48,3.89 -3.02,12.39 4.08,10.74 8.69,-1.3 -5.68,9.24 2.66,10.07 4.97,0.38 3.72,13.97 8.34,6.3 4.26,-8.15 4.08,6.43 6.38,5.95 1.96,-2.26 5.33,-8.9 4.44,-1.58 0.71,3.26 8.34,0.37 3.02,4.7 -2.13,5.98 7.27,5.89 7.45,6.4 -2.13,8.25 4.43,11.52 8.16,5.31 -1.24,2.44 -4.08,12.96 1.77,10.53 3.73,-4.48 2.84,0.16 3.55,3.04 3.73,4.65 8.7,-11.35 5.86,-2.36 -0.53,3.22 0.35,8.29 1.77,8.29 2.66,0 6.21,-6.99 5.5,-11.05 0.36,-3.43 1.95,-6.55 3.37,-3.54 1.25,-3.19 3.02,-5.74 3.02,-0.32 1.6,6.03 5.32,1.86 5.68,-2.15 5.68,0.21 -0.18,9.78 5.85,6.8 6.92,-3.36 -1.42,8.63 4.09,10.26 3.36,-3.07 11.88,-8.87 6.38,-14.79 -1.42,-5.16 1.07,-12.21 5.5,-8.54 -2.48,2.4 -3.01,7.17 1.24,5.61 4.44,0.54 -3.55,5.96 1.96,7.35 3.9,6.6 5.14,-8.88 9.05,-1.22 2.12,-1.65 -1.96,-13.39 4.08,-10.99 -1.42,-4.3 -4.44,-8.38 -0.18,-11.4 3.02,-7.28 -6.21,-4.98 -4.61,-12.34 3.01,2.74 8.16,-0.91 9.58,4.4 0.53,-5.95 3.19,-4.36 5.5,-0.27 3.72,-2.18 -6.92,-14.17 0.35,-9.9 6.75,2.68 -2.66,-11.05 3.37,-11.67 0.19,-6.68 -7.63,-6.8 -8.69,-10.34 1.06,-0.96 2.31,-1.49 3.37,-2.64" />
        <path d="m 444.03,298.73 c -0.35,2.96 15.26,-1.58 12.96,3.84 -0.9,7.22 9.58,-4.81 11.35,1.55 -4.44,3.43 -2.48,5.64 3.19,5.82 5.15,0.82 -6.91,2.03 -0.36,3.74 7.81,1.88 -4.6,7.41 5.68,8.22 -3.73,2.73 -7.8,6.35 -2.83,9.92 3.72,3.77 -3.73,7.8 2.83,11.48 -1.41,2.95 -13.66,2.84 0,8.67 -1.95,3.09 -9.22,3.51 -4.97,8.73 -1.24,3.76 -11.88,-4.61 -8.51,2.94 3.02,6.92 -6.04,0.18 -7.1,1.47 4.62,3.82 -3.9,3.57 -2.84,5.57 8.87,1.3 -2.12,7.59 -3.2,7.24 4.62,3.77 0.55,9.63 -5.49,6.11 -3.91,0.17 9.05,5.38 1.42,6.85 -4.09,-0.84 -7.45,-0.53 -3.01,2.78 -2.85,4.07 -9.95,-1.71 -9.95,-0.74 7.1,3.27 -0.16,7.98 -4.6,3.94 -2.85,-1.83 -5.33,-7.12 -6.93,-3.11 -3.89,-2.45 -4.61,-1.83 -3.02,1.87 -2.83,6.1 -8.5,-5.21 -9.75,2.27 4.61,6.34 -1.78,2.93 -1.42,10.09 -2.3,-0.37 -7.45,-5.46 -9.76,-4.2 -5.15,-0.82 -0.71,-4.36 -5.68,-6.91 -2.3,-3.51 -10.46,1.09 -2.83,2.17 2.12,2.43 -9.05,2.69 -2.14,4.71 2.49,1.31 -0.53,3.81 -3.37,4.23 -2.65,-2.52 -4.97,-1.95 -7.98,0 -0.53,-5.05 -3.54,-6.17 -7.63,-5.67 0.53,-3.17 1.24,-6.91 -4.09,-7.38 -5.84,-3.64 5.33,-5.9 0.37,-9.53 -3.02,3.51 -8.69,1.03 -8.35,5.57 -2.3,-2.44 -5.14,-3.15 -5.85,0.77 -3.73,2.79 -1.25,-8.48 -1.78,-7.25 -3.37,2.03 -6.73,4.21 -6.38,-1.05 0.18,-3.46 -1.96,-3.51 -4.44,-4.86 -1.77,-4.37 14.38,-8.26 13.84,-10.93 -1.59,-0.31 -9.22,-2.72 -10.65,-3.16" />
        <path d="m 322.31,356.65 c 3.56,-0.73 -0.53,6.81 5.68,4.18 8.87,-1.53 -4.61,7.07 2.48,9.2 3.56,-3.38 7.1,-3.92 7.63,1.38 1.24,4.74 2.48,-6 4.98,-0.18 2.65,5.43 8.87,-6.26 9.93,1.5 3.54,-0.55 5.68,-6.89 10.46,-2.61 5.51,4.24 10.48,-4.13 15.97,1 4.44,2.1 3.2,-10.67 7.45,-3.45 3.91,6.52 6.04,-5.09 12.6,-2.53 5.69,-0.44 -6.21,-8.61 1.95,-7.3 3.91,0 7.28,0 3.56,-3.27 -2.85,-3.05 -1.61,-3.02 2.3,-2.18 1.6,-1.09 1.95,-6.79 3.91,-2.09 3.9,4.08 7.44,-5.01 7.63,-5.1 4.96,3.29 11.7,-0.81 6.91,-5.27 -0.34,-3.58 7.29,6.79 8.35,0.19 -1.25,-3.09 -1.25,-6.06 3.19,-2.87 4.78,-2.75 -2.85,-7.81 -1.77,-7.96 4.6,5.32 9.75,-1.22 4.43,-4.3 -2.48,-2.1 -9.23,-3.36 -4.43,-5.27 -3.2,-2.81 -2.67,-3.52 1.95,-2.72 6.74,-2.74 -6.93,-7.53 2.48,-7.8 5.85,4.03 1.25,-8.78 8.16,-3.56 7.63,4.17 1.25,-5.49 0.53,-8.23 -1.42,-4.29 -8.34,1.56 -11.88,-2.27 -4.44,-1.24 0.35,-8.66 2.3,-2.61 3.2,1.49 2.67,-7.9 5.86,-2.01 3.19,0.86 8.69,-3.28 3.54,-5.65 -4.43,-2.09 5.86,-4.86 -1.42,-5.22 -3.72,-0.88 -7.45,-1.07 -5.5,-4.76 -4.07,0.75 -8.34,2.08 -9.58,-2.36 -5.31,-4.17 -5.86,4.77 -11.35,1.84 3.55,-2.62 0.36,-7.55 5.49,-7.46 0.37,-1.6 -5.67,-3.52 0,-4.74 6.04,-3.67 -9.75,-0.62 -8.16,-0.89 2.32,-3.03 4.62,-6.12 -1.77,-5.14 -4.07,0.67 -4.43,-1.05 -6.21,-3 -5.49,-0.82 -7.28,5.94 -10.64,5.91 -0.53,-1.19 -0.53,-2.47 -1.24,-3.61" />
        <path d="m 348.21,222.23 c 2.32,0.89 1.79,-5.95 5.33,-3.51 5.68,1.61 -0.35,-5.89 4.62,-8.06 1.77,2.2 3.54,4.53 5.84,-0.41 2.85,-5.02 -0.16,4.95 3.74,-0.23 3.54,-4.82 3.89,5.64 7.27,-0.69 2.48,-1.05 1.42,6.28 5.86,2.61 5.31,-4.01 6.2,3.21 11,0 6.03,-4.06 -0.36,8.55 4.97,3.17 3.36,-4.02 3.9,-1.22 4.78,1.49 2.14,1.12 6.92,0.48 2.49,4.23 -6.03,4.54 3.72,2.29 3.19,4.27 -1.77,1.92 -6.74,5.7 -1.59,3.91 1.95,0.17 -0.71,6.76 2.65,1.74 4.27,-2.77 3.19,5.16 3.38,5.03 5.85,-3.03 7.1,2.13 2.66,5.88 1.59,-1.25 8.34,-5.18 6.03,0.18 -3.2,3.26 -0.88,2.83 1.6,2.21 2.66,2.51 -8.69,9.14 -2.3,5.4 6.02,-2.59 1.41,6.06 -2.5,6.28 -1.77,0.85 -4.78,2.34 -2.3,3.23 -2.66,1.81 -4.07,3.26 -0.18,2.55 3.19,1.15 -0.17,4.22 -2.83,4.93 0,2.97 3.01,1.83 4.61,1.28 -1.07,2.89 -2.13,6.76 2.65,3.99 6.04,-2.76 -1.59,4.94 -2.65,7.12 -2.31,4.42 -5.51,-1.39 -9.41,1.93 -3.2,0.51 -3.01,7.7 0.36,2.77 3.54,-2.49 -0.71,6.98 3.73,1.66 3.19,-1.16 4.43,4 0.18,5.41 -3.03,1.75 2.83,3.98 -2.14,4.2 -3.01,0.6 -5.86,0.73 -5.67,4.03 -2.49,-0.33 -5.15,-2.56 -7.1,1.47 -3.2,2.09 -4.79,0.76 -4.79,-1.85 -1.6,-0.51 -4.8,0 -2.66,1.94 -1.43,2.59 -0.35,5.15 1.06,5.47 -5.15,1.57 -1.59,3.34 -1.06,5.17 -3.02,1.79 -8.16,-4.01 -6.39,1.34 0.36,4.9 -7.1,-0.49 -8.34,4.46 -4.61,1.14 -3.36,-6.34 -6.21,-5.15 -0.53,0.93 -1.06,1.94 -1.77,2.79" />
        <path d="m 247.08,355.59 c 3.55,-0.71 -0.71,6.81 5.68,4.18 8.87,-1.55 -4.61,7.07 2.31,9.19 3.72,-3.35 7.27,-3.93 7.8,1.39 1.25,4.75 2.3,-5.98 4.8,-0.18 2.65,5.45 8.87,-6.27 10.12,1.5 3.36,-0.56 5.67,-14.43 10.27,-10.16 5.52,4.27 8,-4.12 13.49,1.03 4.26,2.07 8.35,-8.04 12.78,-0.82 3.91,6.54 3.38,-0.2 9.93,2.38 5.68,-0.44 -6.39,-8.63 1.96,-7.32 3.72,0 7.28,0 3.55,-3.25 -3.02,-3.07 -1.6,-3.06 2.3,-2.2 1.43,-1.09 1.96,-6.78 3.73,-2.09 4.09,4.08 7.45,-5.01 7.63,-5.08 4.96,3.27 11.88,-0.83 7.1,-5.29 -0.53,-3.57 7.1,6.8 8.34,0.2 -1.24,-3.1 -1.42,-6.05 3.01,-2.88 4.79,-2.75 -2.84,-7.81 -1.6,-7.96 4.43,5.32 9.58,-1.21 4.27,-4.3 -2.32,-2.09 -9.06,-3.37 -4.27,-5.27 -3.36,-2.81 -2.65,-3.51 1.95,-2.74 6.57,-2.72 -6.92,-7.52 2.48,-7.76 5.68,4.01 1.08,-8.8 8,-3.59 7.63,4.18 1.42,-5.48 0.53,-8.21 -20.59,-1.28 -6.21,-10.15 -3.55,-6.9 3.18,0.86 8.51,-3.28 3.55,-5.65 -4.44,-2.09 5.67,-4.86 -1.61,-5.23 -3.54,-0.87 -7.26,-1.05 -5.31,-4.75 -4.26,0.76 -8.52,2.07 -9.77,-2.36 -5.14,-4.16 -5.86,4.77 -11.35,1.86 3.72,-2.64 0.36,-7.56 5.68,-7.49 0.18,-1.58 -5.86,-3.51 -0.19,-4.74 6.23,-3.67 -9.56,-0.62 -7.97,-0.88 2.13,-3.02 4.43,-6.11 -1.77,-5.15 -4.26,0.67 -4.44,-1.05 -6.39,-2.98 -5.33,-0.83 -7.29,5.93 -10.48,5.91 -0.53,-1.19 -0.7,-2.49 -1.41,-3.62" />
        <path d="m 149.14,296.05 1.24,0.84 -5.14,2.53 4.79,5.65 c -5.15,-0.8 -9.23,0.21 -11.53,3.39 l 7.27,2.18 -5.85,5.66 5.67,-1 -2.48,5.24 7.27,2.2 -3.01,3.71 7.98,1.28 1.07,8.1 6.21,2.76 0.53,6.54 8.87,-1.41 -2.84,6.6 7.63,0.85 4.08,4.81 5.5,-6.08 5.15,6.08 4.08,-5.98 1.42,3.86 6.03,-1.25 -2.84,3.73 c 3.2,2.65 6.57,2.65 10.29,0.7 0.36,3.3 0.89,6.33 4.44,6.97 l 6.21,-5.21 c -0.36,2.75 -3.37,5.66 0.89,8.13 l 6.21,-4.18 v 3.98 l 4.61,-0.48 3.19,-6.17 -0.88,4.49 2.3,2.27 4.97,-2.97 0.71,-8.45 2.66,1.61 1.78,-4.3 2.3,4.04 4.26,0.18 0.71,-4.86 4.44,1.24 -0.18,3.54 7.27,-2.42 1.25,7.44 6.03,-5.26 3.9,-4.21 -4.61,-3.48 -0.72,-5.9 5.68,-1.71 -1.95,4.98 6.92,-1.06 -2.12,3.86 6.39,2.04 3.19,-5.48 4.44,1.26 -2.49,-8.04 4.26,-0.91 -5.5,-4.74 2.65,-3.04 -0.88,-4.16 -4.96,0.18 -2.67,-3.82 c 3.36,0.88 6.39,0.94 8.51,-1.83 l 3.38,2.85 1.06,-4.5 6.22,2.74 c -1.79,-2.6 -1.6,-5.69 -7.46,-7.28 l 7.99,-0.48 -4.44,-7.04 2.84,-1.94 -2.84,-2.03 c -2.84,-2.44 -6.75,-1.74 -10.47,-1.76 l 4.27,-3.81 c 0,0 0,0 0,0" />
        <path d="m 202.73,229.34 c -1.42,-13.45 -7.63,-12.11 -9.41,-12.19 -1.95,0 -3.72,0 -2.48,2.97 0.53,7.24 -6.74,-3.69 -11.18,0.18 1.77,3.53 4.97,6.9 -2.48,6.6 -6.75,0.32 6.38,2.64 -0.54,3.92 -7.8,1.33 6.04,7.91 -3.01,7.93 -2.13,2.36 7.8,5.07 2.13,8.04 -4.26,3.08 -2.49,6.22 -0.71,9.84 -3.02,3.14 -6.04,6.25 0.71,7.28 8.51,2.02 -10.12,4.08 -1.42,7.32 5.32,1.92 -0.89,10.53 6.92,7 8.69,-4.85 -0.36,9.1 6.56,5.4 3.2,-1.27 6.21,-2.5 3.37,1.17 -0.53,2.31 8.7,2.72 1.95,3.98 -5.32,2.8 5.33,6.68 5.33,6.83 -4.62,3.6 -0.36,9.6 5.5,6.3 4.08,0.22 -9.05,5.04 -1.24,6.79 3.9,-0.71 7.45,-0.32 3.01,2.85 2.84,4.18 9.94,-1.35 9.94,-0.41 -6.92,3.06 0.35,7.98 4.79,4.07 2.84,-1.71 5.15,-6.93 6.92,-2.86 3.73,-2.32 4.61,-1.69 3.02,1.95 2.66,6.2 8.34,-4.9 9.58,2.59 -6.92,4.27 10.47,2.64 2.66,7.75 -5.32,5.27 7.1,1.18 10.29,1.05 5.14,-0.64 -0.89,-6.89 4.08,-9.28 2.13,-3.42 10.47,1.42 2.84,2.22 -2.13,2.4 9.4,3.12 1.77,5 -1.42,2.47 3.01,7.34 6.39,3.6 3.2,-3.4 5.33,5.27 6.57,-0.6 1.59,-2.89 2.3,-5.8 6.39,-3.83 0,-2.91 -1.79,-7.24 3.72,-7.21 6.21,-3.62 -4.61,-5.89 -0.36,-9.82 1.95,2.19 6.39,3.2 7.99,2.99 -0.54,5.06 2.12,1.06 4.79,0.88 1.06,2.45 3.54,6.09 3.72,1.11 1.24,-2.91 -3.19,-7.97 2.14,-4.02 6.39,4.76 1.77,-7.61 8.5,-6.84 1.61,-4.31 -6.38,-6.69 -5.84,-9.35 1.41,-0.25 6.74,-10.78 8.16,-11.19" />
        <path d="m 351.41,246.34 c -2.3,-2.02 6.92,-3.28 1.78,-6.16 -5.14,-5.21 7.98,-1.18 8.33,-6.67 -3.89,-1.29 -7.98,-2.36 -2.65,-5.87 5.13,-4.19 -6.39,1.33 -1.6,-3.76 4.43,-4.88 -9.59,-2.48 -3.02,-7.4 0.18,-2.8 -9.05,0.18 -6.57,-5.16 2.67,-6.21 -7.45,-5.27 -5.67,-10.9 2.31,-6.92 -11,2.73 -6.74,-4.02 3.54,-4.39 -0.53,-4.21 -4.62,-4.39 -2.48,-1.82 -4.25,-6.7 -6.74,-1.28 -2.84,7.12 -5.14,-3.06 -7.44,-2.02 -1.61,2.15 -3.91,8.09 -4.27,2.61 -1.24,-1.99 -8.51,2.52 -3.73,-2.24 1.43,-4.91 -8.51,-1.73 -8.51,-2.02 0.88,-6.56 -6.57,-6.42 -9.05,-0.99 0.71,-1.95 2.67,-6.35 -0.71,-6.97 -3.38,3.71 -6.21,3.69 -6.74,0 -4.43,0.17 -6.39,9.6 -8.7,0 -3.36,1.42 -5.68,3.83 -3.91,7.86 -0.16,2 -0.53,5.34 -3.01,3.08 -0.88,3.16 -2.12,4.85 -3.36,0.82 -3.2,-2.8 -5.51,1.28 -4.98,4.05 -3.9,0.78 -3.9,-2.38 -4.08,-4.16 -3.37,1.74 -7.8,3.87 -6.74,-1.54 0.53,-6.74 -5.68,2.8 -7.98,4.51 -4.62,3.46 4.79,5 2.3,9.67 1.07,3.35 -8.51,5.02 -3.72,0.49 1.42,-4.11 -8.87,2.49 -4.26,-3.3 0,-3.37 -7.63,-3.33 -7.1,1.28 -0.71,3.5 -6.74,-1.69 -4.44,3.25 0.71,3.08 2.14,5.91 -2.48,6.54 1.78,2.44 6.21,4.48 1.95,7.54 -1.06,3.62 1.42,4.78 4.79,4.1 1.6,1.49 2.67,4.85 -1.06,3.14 -2.66,2.22 -6.56,1.87 -7.81,0.48 0.71,5.56 -3.55,2.35 -6.21,2.4 -0.71,3.53 9.58,7.06 1.6,6.67 -6.74,0.83 4.43,6.9 -1.6,9.44 0.89,4.72 10.29,1.67 10.12,4.67 -0.89,0.88 -1.96,1.54 -2.66,2.53" />
        <path d="m 357.27,279.15 c -2.14,-2.03 6.2,-3.28 1.6,-6.14 -4.62,-5.22 7.27,-1.21 7.45,-6.69 -3.56,-1.3 -7.1,-2.36 -2.32,-5.87 4.8,-4.19 -5.84,1.33 -1.41,-3.76 4.08,-4.88 -8.7,-2.47 -2.66,-7.4 0,-2.79 -8.34,0.18 -6.04,-5.17 2.32,-6.21 -6.74,-5.27 -5.13,-10.89 1.93,-6.9 -10.12,2.73 -6.22,-4.03 3.19,-4.38 -0.53,-4.2 -4.08,-4.38 -2.48,-1.83 -3.9,-6.71 -6.39,-1.28 -2.48,7.12 -4.43,-3.07 -6.57,-2 -1.59,2.13 -3.72,8.07 -3.9,2.59 -1.24,-1.99 -7.8,2.53 -3.36,-2.24 1.24,-4.91 -7.81,-1.74 -7.81,-2.02 0.89,-6.57 -5.86,-6.42 -8.16,-0.99 0.71,-1.96 2.13,-9.66 -3.02,-5.97 -2.48,3.93 -3.03,1.64 -3.56,-0.97 -4.25,-2.08 -6.73,10.96 -5.31,3.71 0.17,-6.76 -7.99,0.17 -6.39,4.11 -0.18,2.01 -0.53,5.36 -2.66,3.09 -0.9,3.18 -2.14,4.84 -3.01,0.82 -3.03,-2.81 -5.15,1.27 -4.62,4.04 -3.54,0.78 -3.73,-2.38 -3.73,-4.15 -3.01,1.74 -7.1,3.87 -6.04,-1.54 0.37,-6.75 -5.31,2.8 -7.26,4.52 -4.26,3.44 4.25,4.99 2.12,9.65 0.89,3.36 -7.8,5.02 -3.54,0.5 1.42,-4.12 -7.99,2.48 -3.73,-3.3 -0.18,-3.37 -6.92,-3.34 -6.56,1.28 -0.71,3.49 -6.21,-1.69 -4.09,3.24 0.71,3.09 1.96,5.91 -2.12,6.57 1.59,2.43 5.5,4.45 1.59,7.52 -0.89,3.64 1.42,4.77 4.44,4.1 1.42,1.49 2.48,4.84 -0.89,3.14 -2.48,2.22 -6.03,1.86 -7.1,0.48 0.54,5.55 -3.37,2.36 -5.67,2.4 -0.71,3.53 8.69,7.06 1.42,6.67 -6.21,0.83 3.9,6.9 -1.42,9.44 0.88,4.72 9.22,1.66 9.22,4.66 -0.89,0.89 -1.95,1.54 -2.48,2.56" />
    </g>
</g>
<path style="stroke:#22ee22;stroke-width:3;fill:none;" d="m 167.41,81.873 a 252.98,258.09 89.996 0 1 256.68,26.447 m -257.47,-17.645 a 258.09,253 0.00463 0 1 257.46,17.645 m -257.94,-8.834 a 258.09,252.98 0.00496 0 1 257.93,8.834 m -251.58,4.74 a 258.09,252.99 0.01161 0 1 251.59,-4.74 m -245,9.23 a 258.09,252.99 0.00124 0 1 245,-9.23 m -238.34,13.47 a 252.99,258.09 89.991 0 1 238.34,-13.47 m -258.09,0 a 258.09,252.99 0 0 1 258.09,0"/>
<path style="fill:#22ee22;stroke:url(#rg2);stroke-width:1" d="m 409.94,79.896 3.26,22.754 -21.07,10.07 23.09,3.99 3.26,22.75 11,-20.28 23.08,3.99 -16.28,-16.53 11.01,-20.288 -21.07,10.072 z"/>
<use id="shine" xlink:href="#shield" style="fill:url(#rg);stroke:#000000;stroke-width:3;"/>
</svg>
